<?xml version="1.0" encoding="iso-8859-1"?>
<!-- Generator: Adobe Illustrator 19.0.0, SVG Export Plug-In . SVG Version: 6.00 Build 0)  -->
<svg xmlns="http://www.w3.org/2000/svg" xmlns:xlink="http://www.w3.org/1999/xlink" version="1.1" id="Layer_1" x="0px" y="0px" viewBox="0 0 498.052 498.052" style="enable-background:new 0 0 498.052 498.052;" xml:space="preserve" width="512" height="512">
<g>
	<path d="M337.021,37.84h-37.525c0-25.75-15.7-37.84-32.826-37.84H120.974c-16.623,0-32.837,11.519-32.837,37.84H47.602   c-21.416,0-38.837,17.43-38.837,38.846v382.529c0,21.417,17.42,38.837,38.837,38.837h289.419c21.417,0,38.837-17.42,38.837-38.837   V76.686C375.857,55.27,358.437,37.84,337.021,37.84z M118.645,32.826c0-1.281,1.047-2.318,2.329-2.318H266.67   c1.281,0,2.318,1.037,2.318,2.318v40.545c0,1.281-1.037,2.318-2.318,2.318H120.974c-1.281,0-2.329-1.037-2.329-2.318V32.826z    M345.349,459.215c0,4.597-3.732,8.329-8.329,8.329H47.602c-4.586,0-8.329-3.732-8.329-8.329V76.686   c0-4.597,3.742-8.339,8.329-8.339h40.535c0,25.221,15.161,37.85,32.837,37.85H266.67c17.232,0,32.826-12.143,32.826-37.85h37.525   c4.597,0,8.329,3.742,8.329,8.339V459.215z"/>
	<path d="M293.842,121.147c-20.358,20.358-14.284,14.284-30.366,30.365l-13.037-13.037c-14.236-14.259-35.851,7.311-21.569,21.569   l23.827,23.827c5.968,5.967,15.631,5.938,21.569,0l41.145-41.145C329.659,128.478,308.13,106.883,293.842,121.147z"/>
	<path d="M80.002,167.763h84.405c20.153,0,20.185-30.508,0-30.508H80.002C59.856,137.255,59.806,167.763,80.002,167.763z"/>
	<path d="M293.842,201.779c-22.298,22.286-15.539,15.529-30.366,30.355c-8.467-8.468-8.188-8.188-13.037-13.037   c-14.244-14.244-35.842,7.307-21.569,21.579l23.827,23.816c6.017,6.018,15.682,5.888,21.569,0l41.145-41.145   C329.663,209.097,308.115,187.506,293.842,201.779z"/>
	<path d="M80.002,248.385h84.405c20.153,0,20.185-30.508,0-30.508H80.002C59.856,217.877,59.805,248.385,80.002,248.385z"/>
	<path d="M293.842,282.401c-22.298,22.286-15.552,15.542-30.366,30.355c-8.332-8.32-5.36-5.35-13.037-13.027   c-14.232-14.255-35.841,7.297-21.569,21.569l23.827,23.817c5.962,5.961,15.598,5.971,21.569,0l41.145-41.145   C329.658,289.724,308.119,268.125,293.842,282.401z"/>
	<path d="M80.002,329.018h84.405c20.149,0,20.185-30.508,0-30.508H80.002C59.78,298.51,59.871,329.018,80.002,329.018z"/>
	<path d="M404.372,145.095l0.61,225.698l27.203,93.558c4.238,14.602,25.047,14.614,29.288,0l27.203-93.558l0.61-225.698   c0-28.05-21.228-42.08-42.457-42.083C425.601,103.01,404.372,117.035,404.372,145.095z M458.778,351.278H434.88V191.284h23.898   V351.278z M453.714,381.786l-6.885,23.674l-6.885-23.674H453.714z M434.88,145.095c0-15.788,23.898-15.797,23.898,0v15.681H434.88   V145.095z"/>
	<path d="M80.002,399.064h113.815c20.222,0,20.131-30.508,0-30.508H80.002C59.856,368.556,59.805,399.064,80.002,399.064z"/>
	<path d="M272.141,419.87H80.002c-20.18,0-20.156,30.508,0,30.508h192.139C292.321,450.378,292.296,419.87,272.141,419.87z"/>
</g>















</svg>
